<?xml version="1.0" standalone="no"?>
<!DOCTYPE svg PUBLIC "-//W3C//DTD SVG 20010904//EN"
 "http://www.w3.org/TR/2001/REC-SVG-20010904/DTD/svg10.dtd">
<svg version="1.0" xmlns="http://www.w3.org/2000/svg"
 width="400.000000pt" height="400.000000pt" viewBox="0 0 400.000000 400.000000"
 preserveAspectRatio="xMidYMid meet">
<metadata>
Created by potrace 1.14, written by Peter Selinger 2001-2017
</metadata>
<g transform="translate(0.000000,400.000000) scale(0.100000,-0.100000)"
fill="#000000" stroke="none">
<path d="M0 2000 l0 -2000 2000 0 2000 0 0 105 0 104 -37 10 c-21 5 -62 12
-90 15 -138 17 -388 92 -451 136 l-21 15 29 84 c33 95 40 106 41 65 0 -16 3
-23 6 -16 2 6 11 12 19 12 8 0 14 8 14 18 0 17 16 30 75 63 17 9 30 25 30 35
0 13 8 19 22 20 28 2 51 25 58 60 4 23 3 25 -4 9 -9 -19 -10 -19 -10 4 -1 14
-9 33 -18 43 -26 29 -31 267 -8 392 18 101 16 120 -16 157 -28 32 -21 62 16
69 61 13 200 84 236 120 20 21 53 43 73 50 35 11 36 13 36 60 l0 47 -72 -38
c-91 -48 -172 -54 -235 -16 -20 12 -53 27 -73 32 -22 7 -36 18 -38 30 -8 57
-13 66 -31 60 -13 -4 -23 6 -41 42 -13 27 -27 50 -31 53 -8 6 -23 59 -41 145
-16 79 -21 302 -8 370 25 126 69 263 88 270 10 4 12 1 7 -12 -15 -37 -16 -51
-7 -84 l8 -34 6 27 c3 15 1 25 -3 22 -5 -3 -9 4 -9 16 0 19 1 20 16 6 19 -19
30 -20 32 -3 6 62 62 228 102 302 9 16 33 39 53 49 21 11 37 27 37 37 0 9 7
19 15 23 8 3 15 12 15 21 0 8 6 15 13 15 6 1 45 39 86 85 41 47 82 87 93 91
16 5 18 17 18 108 l0 103 -60 34 c-34 19 -89 50 -123 70 -34 20 -87 44 -117
54 -44 14 -68 31 -122 86 -36 38 -69 69 -73 69 -4 0 -41 34 -82 75 -41 41 -70
75 -65 75 5 0 15 -7 22 -15 19 -23 105 -19 217 11 96 26 117 37 198 108 l40
35 -1917 1 -1918 0 0 -2000z m1520 1901 c0 -11 -22 -37 -49 -60 -26 -22 -67
-65 -90 -96 -22 -30 -59 -79 -81 -108 -78 -105 -91 -200 -39 -293 70 -127 114
-284 80 -284 -4 0 -20 27 -35 60 -15 33 -50 90 -77 127 -47 65 -79 141 -79
188 0 27 -30 63 -48 57 -20 -6 -62 -78 -62 -105 0 -13 -9 -32 -20 -42 -27 -25
-27 -95 2 -151 12 -24 25 -44 28 -44 4 0 28 -16 53 -36 36 -28 56 -55 82 -111
19 -42 38 -86 41 -99 3 -13 12 -28 20 -35 8 -6 14 -18 14 -26 0 -8 7 -28 16
-45 l16 -31 24 59 c13 33 27 75 30 94 8 41 34 73 34 42 0 -11 -5 -22 -12 -24
-10 -4 -9 -14 1 -46 14 -41 13 -57 -8 -195 -12 -77 -5 -100 50 -159 17 -18 40
-52 51 -75 23 -52 33 -55 25 -9 -6 37 -6 35 76 168 32 51 71 100 85 109 18 10
33 33 45 66 12 32 25 53 38 56 12 3 19 0 19 -9 0 -8 5 -14 10 -14 14 0 12 -42
-5 -134 -8 -43 -15 -122 -14 -175 0 -53 -4 -127 -11 -164 -6 -38 -13 -98 -15
-134 l-4 -66 42 65 c53 83 73 119 108 191 29 59 55 74 63 35 15 -73 14 -103
-4 -192 -11 -53 -24 -106 -30 -117 -18 -32 -92 -129 -100 -129 -12 0 -29 -47
-36 -101 l-7 -53 29 20 c78 53 155 69 173 37 15 -27 25 -8 31 55 5 62 29 82
50 42 24 -45 6 -230 -22 -230 -4 0 -8 -7 -8 -15 0 -18 -9 -19 -30 -4 -13 9
-13 10 2 6 14 -5 15 -3 2 21 -8 15 -14 33 -14 40 0 17 -8 15 -34 -10 -33 -33
-62 -79 -70 -110 -4 -19 -13 -28 -27 -28 -11 0 -27 -7 -36 -15 -14 -14 -9 -23
54 -88 38 -40 78 -85 89 -100 15 -21 28 -28 54 -29 57 -1 154 20 213 47 133
61 340 73 492 29 50 -14 102 -27 117 -28 15 -1 35 -9 45 -18 10 -8 42 -26 71
-38 28 -13 52 -27 52 -31 0 -3 14 -12 30 -19 17 -7 30 -16 30 -21 0 -5 6 -9
13 -9 11 0 67 -70 67 -84 0 -4 12 -25 26 -47 29 -47 31 -71 15 -151 -9 -42
-19 -61 -38 -73 -18 -12 -28 -14 -36 -6 -15 15 -36 14 -52 -3 -40 -39 -210
-89 -336 -99 -11 -1 -19 -5 -19 -9 0 -4 -9 -8 -21 -8 -11 0 -18 4 -14 9 3 6
-7 6 -27 1 -41 -12 -131 -2 -141 16 -4 8 -21 14 -37 14 -16 0 -39 4 -52 9 -13
5 -54 14 -93 21 -38 6 -110 22 -160 36 -49 13 -119 30 -154 39 -107 26 -153
76 -117 130 33 50 11 99 -34 75 -25 -14 -27 -13 -33 10 -6 25 -29 18 -47 -15
-15 -28 -39 -40 -54 -25 -5 5 -29 10 -53 10 -39 0 -45 4 -70 41 -23 36 -29 58
-40 177 -8 76 -15 192 -17 259 -3 67 -7 127 -11 133 -8 14 -40 -4 -49 -27 -8
-19 -21 -107 -37 -238 -5 -44 -14 -116 -20 -160 -6 -44 -11 -97 -11 -117 0
-43 -14 -50 -28 -14 -12 33 -31 42 -45 23 -27 -37 -68 42 -71 138 -1 39 -9
105 -18 147 -9 42 -16 112 -16 155 -1 111 -13 163 -44 190 -15 12 -32 20 -39
18 -6 -3 -20 7 -30 22 -9 16 -26 43 -38 61 -12 18 -27 57 -35 87 -13 49 -13
58 2 92 18 41 19 54 3 94 -9 24 -14 26 -45 19 -29 -7 -34 -6 -30 6 3 9 1 12
-4 9 -6 -3 -10 -1 -10 5 0 6 -4 8 -10 5 -6 -4 -4 -18 6 -38 16 -31 16 -32 -2
-14 -14 13 -19 32 -19 72 0 42 -5 59 -21 76 -34 33 -43 21 -28 -36 7 -27 13
-67 14 -88 0 -20 4 -45 9 -55 5 -9 14 -34 21 -55 6 -21 27 -65 46 -99 22 -39
38 -85 46 -131 10 -60 17 -76 49 -110 21 -21 41 -47 44 -57 3 -11 12 -17 19
-14 22 8 48 -341 28 -373 -4 -6 -19 -16 -34 -22 -29 -11 -25 -14 -95 76 -12
15 -25 48 -29 73 -12 82 -64 324 -84 385 -24 78 -44 164 -70 300 -48 254 -58
295 -77 295 -17 0 -24 -43 -26 -166 -1 -90 2 -119 20 -169 12 -33 27 -97 33
-143 6 -46 20 -104 32 -130 18 -43 78 -237 78 -254 0 -13 -17 -9 -39 10 -23
19 -81 172 -81 215 0 15 -5 27 -12 27 -6 0 -9 3 -5 6 3 3 -6 27 -21 52 -35 64
-51 138 -39 182 9 34 4 219 -9 312 -6 44 -4 49 27 77 18 17 36 31 39 31 3 0
20 -13 38 -29 39 -36 41 -23 6 36 -39 67 -63 147 -70 232 -11 133 43 290 119
352 l21 17 -26 86 c-20 67 -26 104 -24 164 3 92 19 127 81 179 64 54 104 73
150 73 48 0 132 40 230 109 39 28 75 54 81 60 23 20 128 71 145 71 12 0 19 -7
19 -19z m1640 -11 c0 -5 19 -18 43 -28 58 -26 129 -96 165 -162 45 -84 46
-100 12 -172 -33 -70 -33 -87 4 -165 29 -60 62 -156 71 -206 8 -44 27 -44 36
-1 3 20 9 -2 18 -71 11 -91 10 -110 -9 -205 -12 -65 -25 -107 -35 -113 -8 -4
-15 -15 -15 -24 0 -24 -40 -83 -56 -83 -8 0 -14 -3 -14 -7 0 -5 -4 -14 -9 -21
-6 -11 -17 -9 -52 8 -36 18 -49 20 -72 11 -16 -6 -25 -16 -22 -21 13 -21 17
-150 4 -150 -8 0 -7 -7 4 -23 15 -24 26 -80 32 -162 2 -27 5 -61 8 -75 3 -14
11 -63 18 -110 6 -47 18 -103 26 -125 38 -103 65 -384 43 -449 -6 -20 -16 -36
-20 -36 -15 0 -51 -44 -46 -56 9 -23 -14 -31 -62 -22 -61 12 -126 31 -132 38
-9 9 -154 70 -168 70 -26 0 -147 72 -159 95 -7 12 -22 97 -33 187 -31 249 -18
388 63 669 14 47 31 124 38 170 9 66 18 93 43 126 27 36 36 42 69 43 28 0 37
4 37 18 -1 31 -34 59 -101 82 l-66 23 -31 81 c-40 105 -52 175 -52 307 0 123
19 239 50 299 27 54 157 190 181 190 11 0 19 -6 19 -14 0 -24 20 -29 61 -16
44 15 50 27 17 32 -16 2 -22 9 -20 21 3 19 3 19 -58 -1 -21 -6 29 30 60 45 31
14 110 17 110 3z"/>
<path d="M886 3457 c-27 -89 -8 -180 43 -217 12 -8 21 -20 21 -26 0 -6 7 -17
15 -24 13 -11 15 -7 15 27 0 21 -5 44 -12 51 -6 6 -14 55 -17 109 -5 81 -10
102 -27 119 l-21 21 -17 -60z"/>
<path d="M1190 2487 c0 -21 34 -47 49 -38 10 7 8 13 -10 30 -26 24 -39 27 -39
8z"/>
<path d="M1107 2424 c-11 -11 -9 -82 3 -89 6 -3 12 0 15 7 7 19 -8 91 -18 82z"/>
<path d="M1261 2364 c0 -11 3 -14 6 -6 3 7 2 16 -1 19 -3 4 -6 -2 -5 -13z"/>
<path d="M1263 2320 c4 -14 7 -35 7 -48 0 -13 4 -20 10 -17 16 10 12 55 -7 73
-16 16 -16 15 -10 -8z"/>
<path d="M1550 2220 c0 -30 13 -40 25 -20 8 13 -4 50 -16 50 -5 0 -9 -13 -9
-30z"/>
<path d="M1660 2110 c0 -5 5 -10 11 -10 5 0 7 5 4 10 -3 6 -8 10 -11 10 -2 0
-4 -4 -4 -10z"/>
<path d="M1280 2057 c0 -8 7 -20 15 -27 12 -10 15 -10 15 3 0 8 -7 20 -15 27
-12 10 -15 10 -15 -3z"/>
<path d="M1151 2018 c0 -28 2 -30 9 -13 12 28 12 45 0 45 -5 0 -10 -15 -9 -32z"/>
<path d="M1607 1881 c-16 -49 -13 -131 4 -131 5 0 9 -6 9 -13 0 -20 30 -77 40
-77 17 0 22 22 8 38 -22 27 -51 159 -44 198 10 49 2 42 -17 -15z"/>
<path d="M2250 1448 c0 -8 -11 -32 -25 -53 l-26 -37 29 21 c16 11 32 18 35 15
8 -8 107 16 107 26 0 4 -18 4 -40 -1 -23 -5 -46 -10 -53 -12 -7 -1 -12 8 -12
20 0 11 -3 25 -7 29 -5 4 -8 0 -8 -8z"/>
<path d="M2760 1425 c0 -32 -51 -114 -92 -150 -24 -20 -34 -33 -23 -29 40 15
74 45 104 94 l31 51 61 -66 c41 -44 73 -68 97 -75 68 -19 79 -11 26 18 -61 32
-159 119 -168 150 -8 25 -36 30 -36 7z"/>
<path d="M2307 1363 c-15 -2 -25 -9 -22 -14 7 -10 54 -2 70 12 9 9 3 9 -48 2z"/>
<path d="M2370 1329 c-124 -23 -174 -37 -157 -44 9 -4 47 0 85 9 122 28 116
30 122 -39 7 -81 62 -155 114 -155 12 0 16 10 15 38 0 32 -1 34 -9 15 -12 -30
-21 -29 -52 5 -40 42 -50 70 -46 125 3 58 1 60 -72 46z"/>
<path d="M2760 1291 c-20 -4 -30 -9 -24 -14 15 -9 104 3 104 14 0 10 -26 10
-80 0z"/>
<path d="M2331 1229 c-13 -17 -29 -28 -36 -25 -9 3 -12 0 -9 -9 4 -8 -6 -20
-25 -30 -17 -8 -31 -17 -31 -20 0 -5 55 11 70 20 6 4 20 -1 31 -11 24 -22 38
-10 15 14 -15 18 -15 21 5 46 13 17 18 31 12 37 -6 6 -18 -3 -32 -22z"/>
<path d="M2790 1218 c-30 -5 -63 -7 -72 -4 -24 6 -23 -3 8 -58 20 -36 30 -45
43 -40 9 4 39 9 67 12 50 4 52 5 63 43 19 62 8 67 -109 47z m86 -30 c-3 -13
-6 -26 -6 -30 0 -3 -23 -9 -52 -13 -43 -6 -54 -5 -65 11 -29 39 -13 49 86 53
40 1 43 -1 37 -21z"/>
<path d="M3960 3925 c-14 -8 -37 -20 -52 -27 -16 -7 -28 -16 -28 -20 0 -4 -9
-8 -20 -8 -11 0 -51 -16 -89 -35 -78 -40 -103 -43 -131 -15 -24 24 -53 26 -70
5 -20 -24 4 -86 43 -110 27 -16 130 -76 212 -122 27 -16 151 -63 164 -63 7 0
11 45 11 134 0 110 -3 135 -15 140 -8 3 -15 12 -15 20 0 8 7 21 15 30 15 15
21 86 8 86 -5 0 -19 -7 -33 -15z"/>
<path d="M3945 2908 c-8 -13 -20 -39 -25 -59 -14 -49 3 -211 24 -244 9 -14 16
-34 15 -43 -2 -9 1 -28 5 -41 5 -13 14 -58 21 -100 12 -71 13 -56 14 217 1
283 0 292 -18 292 -11 0 -27 -10 -36 -22z"/>
<path d="M3980 1926 c0 -8 5 -18 10 -21 6 -3 10 3 10 14 0 12 -4 21 -10 21 -5
0 -10 -6 -10 -14z"/>
<path d="M3978 1178 c-9 -18 -19 -55 -21 -83 -2 -27 -13 -90 -25 -140 -23
-101 -33 -351 -18 -466 8 -59 11 -66 38 -78 18 -8 33 -10 39 -4 5 5 8 171 7
407 -3 380 -4 395 -20 364z"/>
<path d="M3972 368 c6 -18 28 -21 28 -4 0 9 -7 16 -16 16 -9 0 -14 -5 -12 -12z"/>
</g>
</svg>
